<svg id="Layer_1" data-name="Layer 1" xmlns="http://www.w3.org/2000/svg" viewBox="0 0 202.76 153.03"><path d="M117.62,34.64,89.27,63.46" style="fill:none;stroke:#000;stroke-miterlimit:10"/><path d="M85.43,67.59l2.45-7.43,1.25,3.71,3.72,1.22Z" style="stroke:#000;stroke-miterlimit:10"/><circle cx="131.76" cy="20.5" r="20" style="fill:#fff;stroke:#000"/><g style="isolation:isolate"><path d="M126.06,26.76v-15h1.44v15Z"/><path d="M135.66,26.76v-15h1.44v15Z"/></g><path d="M68.38,84.65,39.14,113.89" style="fill:none;stroke:#000;stroke-miterlimit:10"/><circle cx="70.5" cy="82.53" r="3" style="stroke:#000"/><path d="M35.43,117.6l2.48-7.43,1.23,3.72,3.72,1.23Z" style="stroke:#000;stroke-miterlimit:10"/><circle cx="70.5" cy="82.53" r="20" style="fill:#fff;stroke:#000"/><g style="isolation:isolate"><path d="M64.56,87.17a3,3,0,0,1-2.22-.82,3.07,3.07,0,0,1-.82-2.24V83.2a2.87,2.87,0,0,1,.77-2.1,2.79,2.79,0,0,1,2.08-.78l-.14.07-.5-.64a6.28,6.28,0,0,1-.64-1.07,2.3,2.3,0,0,1-.22-1,2.56,2.56,0,0,1,.35-1.33,2.41,2.41,0,0,1,1-.89,3.35,3.35,0,0,1,3,.06,2.79,2.79,0,0,1,1,1.06,3.29,3.29,0,0,1,.38,1.6H67.19a1.93,1.93,0,0,0-.43-1.31,1.39,1.39,0,0,0-1.12-.5,1.29,1.29,0,0,0-1.35,1.34,1.75,1.75,0,0,0,.12.62,2.29,2.29,0,0,0,.35.6l3.12,4,1.45-1.82h1.6L68.64,84,71,87H69.38l-1.55-2-.69.86a3.54,3.54,0,0,1-1.21,1A3,3,0,0,1,64.56,87.17Zm.1-1.3a1.93,1.93,0,0,0,.85-.2,2.24,2.24,0,0,0,.7-.61L67,84l-2-2.56h-.48a1.57,1.57,0,0,0-1.19.47,1.85,1.85,0,0,0-.44,1.29v.91a1.75,1.75,0,0,0,.47,1.29A1.7,1.7,0,0,0,64.66,85.87Z"/><path d="M74.16,87.17a3,3,0,0,1-2.22-.82,3.07,3.07,0,0,1-.82-2.24V83.2a2.87,2.87,0,0,1,.77-2.1A2.79,2.79,0,0,1,74,80.32l-.14.07-.5-.64a5.69,5.69,0,0,1-.64-1.07,2.3,2.3,0,0,1-.22-1,2.56,2.56,0,0,1,.35-1.33,2.35,2.35,0,0,1,1-.89,3.35,3.35,0,0,1,3,.06,2.79,2.79,0,0,1,1,1.06,3.29,3.29,0,0,1,.38,1.6H76.79a1.93,1.93,0,0,0-.43-1.31,1.39,1.39,0,0,0-1.12-.5,1.29,1.29,0,0,0-1.35,1.34,1.75,1.75,0,0,0,.12.62,2.29,2.29,0,0,0,.35.6l3.12,4,1.45-1.82h1.6L78.24,84l2.32,3H79l-1.55-2-.69.86a3.64,3.64,0,0,1-1.21,1A3,3,0,0,1,74.16,87.17Zm.1-1.3a1.93,1.93,0,0,0,.85-.2,2.24,2.24,0,0,0,.7-.61L76.64,84l-2-2.56h-.48a1.57,1.57,0,0,0-1.19.47,1.85,1.85,0,0,0-.44,1.29v.91A1.75,1.75,0,0,0,73,85.4,1.7,1.7,0,0,0,74.26,85.87Z"/></g><circle cx="20.5" cy="132.53" r="20" style="fill:#fff;stroke:#000"/><g style="isolation:isolate"><path d="M16.78,137a2.61,2.61,0,0,1-1.26-.28,1.93,1.93,0,0,1-.82-.78,2.49,2.49,0,0,1-.29-1.23v-8.43H11.47v-1h4v9.39a1.2,1.2,0,0,0,1.31,1.33H19.5v1Z"/><path d="M24.77,137.17a3.6,3.6,0,0,1-1.53-.3,2.34,2.34,0,0,1-1-.84,2.51,2.51,0,0,1-.41-1.26h1.05a1.55,1.55,0,0,0,.58,1.06,2,2,0,0,0,1.33.41h1a2,2,0,0,0,1.33-.41,1.44,1.44,0,0,0,.48-1.14,1.74,1.74,0,0,0-.34-1.08,1.42,1.42,0,0,0-1-.52l-2.13-.29a2.57,2.57,0,0,1-1.6-.72,2.17,2.17,0,0,1-.57-1.58,2.2,2.2,0,0,1,.77-1.77,3.19,3.19,0,0,1,2.09-.65h.8a3.15,3.15,0,0,1,2,.61,2.21,2.21,0,0,1,.87,1.6H27.4a1.39,1.39,0,0,0-.56-.93,2.09,2.09,0,0,0-1.26-.37h-.8a2,2,0,0,0-1.32.41,1.35,1.35,0,0,0-.49,1.08,1.2,1.2,0,0,0,.35.91,1.74,1.74,0,0,0,1,.42l2,.27a2.48,2.48,0,0,1,1.64.83,2.53,2.53,0,0,1,.59,1.72,2.35,2.35,0,0,1-.76,1.86,3,3,0,0,1-2.09.68Z"/></g><circle cx="120" cy="132.53" r="20" style="fill:#fff;stroke:#000"/><g style="isolation:isolate"><path d="M108.44,139.91V128.23h1.06v1.58h.28l-.38.56a2.14,2.14,0,0,1,.7-1.68,2.6,2.6,0,0,1,1.83-.62,3,3,0,0,1,1.53.39,2.6,2.6,0,0,1,1,1.12,3.77,3.77,0,0,1,.36,1.7V134a3.81,3.81,0,0,1-.36,1.71,2.75,2.75,0,0,1-1,1.13,3,3,0,0,1-1.53.4,2.57,2.57,0,0,1-1.83-.64,2.12,2.12,0,0,1-.7-1.67l.38.56h-.3l0,1.71v2.76Zm3.2-3.64a2.05,2.05,0,0,0,1.57-.59,2.43,2.43,0,0,0,.56-1.73v-2.67a2.42,2.42,0,0,0-.56-1.72,2.08,2.08,0,0,0-1.57-.58,2,2,0,0,0-1.58.61,2.44,2.44,0,0,0-.56,1.72v2.61a2.47,2.47,0,0,0,.56,1.73A2,2,0,0,0,111.64,136.27Z"/><path d="M118.53,137l-1.47-8.8h1l1,6.41q.07.5.12.9c0,.26,0,.5.06.7,0-.2.05-.44.09-.7s.09-.57.15-.9l1.21-6.41h1.07l1.22,6.41c.06.31.12.6.16.87a7.05,7.05,0,0,1,.08.73c0-.21,0-.45.07-.73s.06-.56.11-.87l1-6.41h.93l-1.51,8.8h-1.28l-1-6.2c0-.28-.09-.6-.15-1s-.1-.62-.12-.84c0,.13,0,.3-.07.51s-.06.44-.1.66-.08.43-.12.62L119.8,137Z"/><path d="M130.45,137.19a2.68,2.68,0,0,1-2.1-.88,3.33,3.33,0,0,1-.79-2.34V131.3a3.36,3.36,0,0,1,.79-2.35,2.68,2.68,0,0,1,2.1-.88,2.63,2.63,0,0,1,1.84.63,2.14,2.14,0,0,1,.71,1.67l-.4-.56h.3v-4.46h1.05V137h-1.05v-1.59h-.29l.38-.56a2.14,2.14,0,0,1-.69,1.68A2.65,2.65,0,0,1,130.45,137.19Zm.29-.92a2,2,0,0,0,1.59-.62,2.5,2.5,0,0,0,.56-1.71v-2.61a2.52,2.52,0,0,0-.56-1.73,2,2,0,0,0-1.59-.62,2.08,2.08,0,0,0-1.57.58,2.44,2.44,0,0,0-.56,1.74V134a2.4,2.4,0,0,0,.56,1.71A2.05,2.05,0,0,0,130.74,136.27Z"/></g><path d="M84.14,96.67l17.22,17.22" style="fill:none;stroke:#000;stroke-miterlimit:10"/><path d="M105.07,117.6l-7.43-2.48,3.72-1.23,1.23-3.72Z" style="stroke:#000;stroke-miterlimit:10"/><circle cx="182.26" cy="70.5" r="3" style="stroke:#000"/><circle cx="182.26" cy="70.5" r="20" style="fill:#fff;stroke:#000"/><g style="isolation:isolate"><path d="M169.67,75.14a3,3,0,0,1-1.52-.36,2.44,2.44,0,0,1-1-1,3.31,3.31,0,0,1-.34-1.55V70.07a3.21,3.21,0,0,1,.34-1.54,2.35,2.35,0,0,1,1-1,3.37,3.37,0,0,1,3,0,2.46,2.46,0,0,1,1,1A3.26,3.26,0,0,1,172.5,70v1.34h-4.77v.92a2.1,2.1,0,0,0,.51,1.5,1.85,1.85,0,0,0,1.43.55,2.16,2.16,0,0,0,1.25-.34,1.36,1.36,0,0,0,.6-.91h.92a2.18,2.18,0,0,1-.89,1.51A3.06,3.06,0,0,1,169.67,75.14Zm1.92-4.41V70a2.15,2.15,0,0,0-.51-1.52,1.79,1.79,0,0,0-1.41-.56,1.89,1.89,0,0,0-1.44.55,2.14,2.14,0,0,0-.5,1.53v.58h4Z"/><path d="M178.18,75.14a3.2,3.2,0,0,1-1.53-.34,2.47,2.47,0,0,1-1-1,3.09,3.09,0,0,1-.35-1.53V70a3,3,0,0,1,.35-1.52,2.47,2.47,0,0,1,1-1,3.2,3.2,0,0,1,1.53-.35,2.93,2.93,0,0,1,2.07.72,2.56,2.56,0,0,1,.79,1.94h-.92a1.74,1.74,0,0,0-.54-1.34,2,2,0,0,0-1.4-.48,1.94,1.94,0,0,0-1.44.53,2,2,0,0,0-.53,1.49v2.26a2,2,0,0,0,.53,1.49,2.25,2.25,0,0,0,2.84,0,1.79,1.79,0,0,0,.54-1.34H181a2.56,2.56,0,0,1-.79,1.94A2.93,2.93,0,0,1,178.18,75.14Z"/><path d="M183.7,75V64.78h.92v3.86h.26l-.31.54a1.87,1.87,0,0,1,.59-1.47,2.17,2.17,0,0,1,1.56-.55,2.43,2.43,0,0,1,1.84.72,2.77,2.77,0,0,1,.68,2V75h-.92V70a2.19,2.19,0,0,0-.48-1.51,1.72,1.72,0,0,0-1.34-.54,1.75,1.75,0,0,0-1.37.56,2.15,2.15,0,0,0-.51,1.52v5Z"/><path d="M194.86,75.13a3.15,3.15,0,0,1-1.51-.35,2.45,2.45,0,0,1-1-1,3.21,3.21,0,0,1-.36-1.56V70.09a3.16,3.16,0,0,1,.36-1.56,2.48,2.48,0,0,1,1-1,3,3,0,0,1,1.51-.36,3,3,0,0,1,1.5.36,2.44,2.44,0,0,1,1,1,3.27,3.27,0,0,1,.35,1.56v2.12a3.32,3.32,0,0,1-.35,1.56,2.41,2.41,0,0,1-1,1A3.08,3.08,0,0,1,194.86,75.13Zm0-.82a1.84,1.84,0,0,0,1.41-.53,2.09,2.09,0,0,0,.51-1.51V70a2.09,2.09,0,0,0-.52-1.51,2.13,2.13,0,0,0-2.81,0,2.09,2.09,0,0,0-.51,1.51v2.24a2.13,2.13,0,0,0,.5,1.51A1.85,1.85,0,0,0,194.86,74.31Z"/></g><path d="M145.9,34.64l17.66,17.27" style="fill:none;stroke:#000;stroke-miterlimit:10"/><path d="M167.32,55.58l-7.45-2.39,3.69-1.28,1.2-3.73Z" style="stroke:#000;stroke-miterlimit:10"/></svg>